<?xml version='1.0' encoding='utf-8'?>
<svg xmlns="http://www.w3.org/2000/svg" height="100%" stroke-miterlimit="10" style="fill-rule:nonzero;clip-rule:evenodd;stroke-linecap:round;stroke-linejoin:round;" version="1.1" viewBox="0 0 3000 3000" width="100%"> <defs> <linearGradient gradientTransform="matrix(1 0 0 1 0 0)" gradientUnits="userSpaceOnUse" id="LinearGradient" x1="1500" x2="2805.81" y1="1500.08" y2="194.188"> <stop offset="0" stop-color="#7e7e7e"/> <stop offset="0.555825" stop-color="#c8c8c8"/> <stop offset="1" stop-color="#7e7e7e"/> </linearGradient> </defs> <g id="Layer-1"/> <g id="Layer-2"/> <g id="Layer-3"> <path d="M474 194.188C319.461 194.187 194.188 319.461 194.188 474L194.188 2526C194.187 2680.54 319.461 2805.81 474 2805.81L2526 2805.81C2680.54 2805.81 2805.81 2680.54 2805.81 2526L2805.81 474C2805.81 319.461 2680.54 194.188 2526 194.188L474 194.188ZM1222.78 762.469C1225.3 762.08 1227.79 763.289 1229.06 765.5C1247.55 798.124 1264.2 831.755 1278.91 866.25C1425.55 843.995 1574.73 843.995 1721.38 866.25C1734.56 835.285 1753.41 795.739 1770.47 765.5C1771.71 763.262 1774.22 762.043 1776.75 762.469C1912.8 786.061 2045.23 827.189 2170.72 884.781C2171.81 885.171 2172.68 885.989 2173.12 887.062C2391.7 1208.45 2499.71 1571.08 2459.31 1988.5C2459.19 1990.3 2458.27 1991.97 2456.78 1993C2310.53 2101.37 2146.88 2183.97 1972.84 2237.31C1970.33 2238.11 1967.58 2237.19 1966.06 2235.03C1929.53 2184.23 1896.28 2130.53 1867.25 2074.28C1866.45 2072.75 1866.31 2070.95 1866.88 2069.31C1867.49 2067.62 1868.81 2066.3 1870.5 2065.69C1922.78 2046.01 1973.33 2021.98 2021.59 1993.84C2023.37 1992.78 2024.5 1990.88 2024.59 1988.81C2024.69 1986.74 2023.73 1984.78 2022.06 1983.56C2011.9 1975.94 2001.74 1967.95 1992.06 1959.97C1990.25 1958.53 1987.79 1958.2 1985.66 1959.12C1672.74 2103.79 1329.82 2103.79 1013.03 1959.12C1010.98 1958.25 1008.62 1958.57 1006.88 1959.97C997.198 1967.95 987.035 1975.94 976.875 1983.56C976.094 1984.17 975.474 1984.94 975.062 1985.84C973.611 1988.72 974.663 1992.25 977.469 1993.84C1025.84 2021.72 1076.32 2045.78 1128.44 2065.81C1129.25 2066.1 1129.97 2066.53 1130.59 2067.12C1132.53 2068.97 1133.03 2071.9 1131.81 2074.28C1103.27 2130.65 1070.13 2184.23 1032.88 2235.03C1031.36 2237.19 1028.61 2238.11 1026.09 2237.31C852.349 2183.81 688.958 2101.21 542.875 1993C541.544 1991.91 540.465 1990.19 540.344 1988.5C506.596 1627.44 575.415 1261.79 826.281 886.938C826.85 885.939 827.739 885.191 828.812 884.781C954.246 827.084 1086.7 785.935 1222.78 762.469ZM1179.12 1378.53C1082.24 1378.53 1005.19 1466.09 1005.19 1573.62C1005.19 1681.04 1083.69 1768.59 1179.12 1768.59C1276.01 1768.59 1353.03 1681.04 1353.03 1573.62C1354.48 1466.82 1276.74 1378.53 1179.12 1378.53ZM1822.12 1378.53C1725.24 1378.53 1648.19 1466.09 1648.19 1573.62C1648.19 1681.04 1726.81 1768.59 1822.12 1768.59C1919.74 1768.59 1996.06 1681.04 1996.06 1573.62C1997.64 1466.82 1919.74 1378.53 1822.12 1378.53Z" fill="url(#LinearGradient)" fill-rule="nonzero" opacity="1" stroke="none"/> </g> </svg>